<?xml version="1.0" standalone="no"?>
<!DOCTYPE svg PUBLIC "-//W3C//DTD SVG 20010904//EN"
 "http://www.w3.org/TR/2001/REC-SVG-20010904/DTD/svg10.dtd">
<svg version="1.0" xmlns="http://www.w3.org/2000/svg"
 width="424.000000pt" height="520.000000pt" viewBox="0 0 424.000000 520.000000"
 preserveAspectRatio="xMidYMid meet">

<g transform="translate(0.000000,520.000000) scale(0.100000,-0.100000)"
fill="#000000" stroke="none">
<path d="M1950 4249 c-1012 -107 -1687 -1085 -1432 -2074 l18 -70 704 -2 705
-2 -87 28 c-105 34 -198 85 -278 152 l-60 50 75 89 c107 124 96 119 157 72
130 -99 281 -149 419 -139 88 7 129 21 178 63 42 35 61 79 61 144 0 58 -15 93
-57 131 -45 41 -70 53 -285 147 -224 97 -295 139 -362 213 -154 172 -145 433
21 597 183 181 494 214 759 81 45 -22 105 -61 133 -87 l52 -47 -73 -92 c-40
-51 -76 -92 -80 -93 -5 0 -30 16 -57 35 -192 138 -471 134 -540 -8 -44 -91
-14 -177 81 -234 29 -18 140 -68 247 -113 221 -92 290 -130 352 -197 88 -94
119 -176 119 -309 0 -216 -125 -381 -347 -459 l-68 -24 413 0 412 -1 0 -195 0
-195 -1205 0 -1206 0 43 -61 c71 -100 178 -219 268 -297 632 -546 1548 -546
2180 0 46 41 117 112 158 158 546 632 546 1548 0 2180 -346 400 -892 615
-1418 559z"/>
</g>
</svg>
