<?xml version="1.0" standalone="no"?>
<!DOCTYPE svg PUBLIC "-//W3C//DTD SVG 20010904//EN"
 "http://www.w3.org/TR/2001/REC-SVG-20010904/DTD/svg10.dtd">
<svg version="1.0" xmlns="http://www.w3.org/2000/svg"
 width="546.000000pt" height="546.000000pt" viewBox="0 0 546.000000 546.000000"
 preserveAspectRatio="xMidYMid meet">
<metadata>
Created by potrace 1.16, written by Peter Selinger 2001-2019
</metadata>
<g transform="translate(0.000000,546.000000) scale(0.100000,-0.100000)"
fill="#000000" stroke="none">
<path d="M2465 5440 c-945 -105 -1740 -648 -2164 -1480 -195 -382 -291 -788
-291 -1230 0 -449 90 -829 289 -1225 415 -823 1189 -1367 2108 -1480 165 -21
467 -21 639 -1 506 60 1000 268 1404 593 196 157 407 392 556 618 573 869 594
2011 55 2899 -285 470 -716 853 -1211 1077 -218 98 -490 177 -742 215 -121 18
-525 27 -643 14z m1521 -1002 c17 -10 36 -30 42 -45 6 -15 38 -185 72 -378 34
-192 64 -358 66 -367 5 -16 24 -18 215 -18 196 0 210 -1 229 -20 27 -27 26
-50 -20 -337 -50 -307 -45 -290 -80 -324 -28 -29 -30 -29 -149 -29 -96 0 -121
3 -121 14 0 7 -16 45 -35 83 -56 112 -159 196 -280 227 -230 60 -458 -70 -538
-306 -6 -16 -22 -18 -141 -18 l-135 0 -6 -32 c-3 -18 -73 -447 -155 -953 -82
-506 -154 -937 -160 -958 -7 -25 -22 -44 -43 -57 -30 -19 -52 -20 -344 -20
-300 0 -314 1 -333 20 -20 20 -24 34 -20 80 1 20 284 1767 305 1888 l6 32
-143 0 -143 0 -23 58 c-60 156 -206 265 -372 279 -207 18 -401 -116 -464 -319
-5 -16 -19 -18 -108 -18 -112 0 -141 10 -151 52 -4 13 15 153 42 312 48 288
48 289 80 318 l31 28 213 0 212 0 193 385 c154 307 200 389 225 407 46 33 138
36 1142 34 783 -2 863 -3 891 -18z m-2218 -1338 c68 -29 144 -112 167 -181 13
-37 16 -72 13 -123 -8 -122 -70 -211 -186 -264 -47 -21 -64 -24 -136 -20 -93
5 -145 27 -205 87 -161 161 -96 435 122 513 66 24 153 19 225 -12z m2178 -1
c185 -88 236 -335 100 -486 -60 -66 -123 -96 -213 -101 -97 -5 -158 16 -227
79 -144 131 -136 350 16 472 87 69 221 84 324 36z m-287 -820 c43 -15 54 -40
46 -102 -11 -74 -20 -94 -57 -117 -30 -18 -51 -20 -205 -20 -132 0 -173 3
-173 13 0 6 9 61 20 121 11 60 20 111 20 113 0 9 321 2 349 -8z m-1750 -316
c0 -16 -8 -71 -17 -123 l-18 -95 -271 0 -271 0 -27 25 c-24 22 -26 30 -20 70
11 78 25 111 59 131 28 17 52 19 299 19 l267 0 -1 -27z m2264 -64 c37 -17 46
-47 35 -110 -5 -30 -16 -65 -25 -77 -32 -50 -49 -52 -528 -52 -417 0 -445 1
-445 18 0 9 7 65 17 125 l17 107 452 0 c311 0 461 -3 477 -11z m-2323 -296 c0
-10 -29 -181 -35 -210 l-5 -23 -461 0 -460 0 -24 25 c-28 27 -29 32 -15 106 7
40 18 61 40 82 l30 27 465 0 c256 0 465 -3 465 -7z m1899 -89 c22 -16 23 -22
18 -85 -12 -139 -13 -139 -357 -139 l-272 0 6 28 c9 37 36 195 36 205 0 4 123
7 273 7 237 0 276 -2 296 -16z m-1962 -296 c-3 -13 -13 -69 -23 -125 l-17
-103 -172 0 c-162 0 -174 1 -200 22 -26 20 -27 24 -22 85 7 76 18 98 60 123
28 18 51 20 206 20 l173 0 -5 -22z"/>
<path d="M2410 4282 c-19 -15 -27 -42 -46 -158 -27 -158 -29 -195 -12 -212 8
-8 62 -12 178 -12 154 0 168 2 185 20 18 20 65 255 65 326 0 51 -10 54 -186
54 -141 0 -165 -2 -184 -18z"/>
<path d="M3218 4290 c-23 -14 -33 -52 -59 -217 -19 -118 -21 -144 -10 -157 11
-13 40 -16 182 -16 150 0 171 2 187 18 13 13 26 64 45 181 36 215 48 201 -167
201 -89 0 -169 -5 -178 -10z"/>
<path d="M1953 3888 c-29 -14 -37 -42 -64 -215 -19 -118 -21 -144 -10 -157 11
-13 40 -16 182 -16 150 0 171 2 187 18 13 13 25 59 41 158 12 76 25 149 28
161 3 13 -3 29 -16 42 -20 20 -32 21 -173 20 -87 0 -163 -5 -175 -11z"/>
<path d="M2746 3878 c-21 -20 -28 -43 -50 -181 -20 -117 -24 -163 -16 -177 10
-19 22 -20 184 -20 152 0 175 2 189 18 10 11 26 75 41 168 31 179 31 178 10
198 -13 13 -43 16 -174 16 -151 0 -160 -1 -184 -22z"/>
<path d="M3550 3882 c-19 -15 -27 -42 -46 -158 -28 -166 -30 -210 -8 -218 9
-3 89 -6 178 -6 151 0 164 1 181 20 13 14 26 63 41 158 29 173 30 198 5 212
-11 6 -87 10 -174 10 -134 0 -158 -2 -177 -18z"/>
<path d="M1569 2891 c-64 -64 -18 -181 71 -181 34 0 79 28 96 61 52 102 -86
201 -167 120z"/>
<path d="M3739 2891 c-23 -23 -29 -38 -29 -71 0 -35 6 -48 35 -77 32 -32 40
-35 76 -30 74 10 117 80 89 147 -16 39 -51 60 -100 60 -33 0 -48 -6 -71 -29z"/>
</g>
</svg>
